# xmcd
#
# Track frame offsets: 
#        150
#        12504
#        27729
#        43062
#        52903
#        75332
#        84824
#        102469
#        112275
#        127479
#        138923
#
# Disc length: 2053 seconds
#
# Revision: 2
# Processed by: cddbd v1.5.2PL0 Copyright (c) Steve Scherf et al.
# Submitted via: ExactAudioCopy v0.95b4
#
DISCID=9508030b
DTITLE=Various Artist - Nashville Guitars
DYEAR=2000
DGENRE=Country
TTITLE0=Jim Olander - Less Taste More Filling
TTITLE1=Kelly Back - Kelecaster
TTITLE2=Tom Hymby/ Puxico Stomp
TTITLE3=Mark Casstevens - Cowtown
TTITLE4=Reggie Young - Exit
TTITLE5=Dug Grieves - Dug In
TTITLE6=Ray Flacke - Templar Treasure
TTITLE7=Boomer Castleman - Fender Bender
TTITLE8=Kerry Marx - Wide Open
TTITLE9=Johnny Hiland - Cudge Boogie
TTITLE10=Louie Shelton - High Roller
EXTD=\nYEAR: 2000  ID3G:   2
EXTT0=
EXTT1=
EXTT2=
EXTT3=
EXTT4=
EXTT5=
EXTT6=
EXTT7=
EXTT8=
EXTT9=
EXTT10=
PLAYORDER=
